<svg width="121" height="60" viewBox="0 0 121 60" fill="none" xmlns="http://www.w3.org/2000/svg">
<path d="M9.6965 22.8035C8.42033 22.8035 7.30367 22.4944 6.34654 21.8763C5.3894 21.2382 4.64164 20.3509 4.10326 19.2143C3.58481 18.0577 3.32559 16.6918 3.32559 15.1165C3.32559 13.4615 3.58481 12.0657 4.10326 10.9291C4.6217 9.79248 5.34952 8.93505 6.28672 8.35678C7.24385 7.75857 8.37048 7.45947 9.66659 7.45947C10.9827 7.45947 12.1492 7.78848 13.1661 8.44651C14.1831 9.0846 14.9807 9.98192 15.5589 11.1385C16.1372 12.295 16.4263 13.621 16.4263 15.1165C16.4263 16.6121 16.1372 17.9481 15.5589 19.1245C15.0006 20.2811 14.213 21.1884 13.196 21.8464C12.199 22.4845 11.0325 22.8035 9.6965 22.8035ZM1.59078 22.4446V2.07559H5.9577V11.8862H5.68851V18.7058H5.9577L4.85102 22.4446H1.59078ZM8.85901 18.7058C9.75633 18.7058 10.4941 18.3768 11.0724 17.7187C11.6706 17.0408 11.9697 16.1734 11.9697 15.1165C11.9697 14.0796 11.6706 13.2322 11.0724 12.5742C10.4941 11.8962 9.75633 11.5572 8.85901 11.5572C7.98164 11.5572 7.24385 11.8962 6.64564 12.5742C6.04743 13.2322 5.74833 14.0796 5.74833 15.1165C5.74833 16.1734 6.04743 17.0408 6.64564 17.7187C7.24385 18.3768 7.98164 18.7058 8.85901 18.7058Z" fill="#3348A1"/>
<path d="M23.105 22.4446H18.7381V7.8184H23.105V22.4446ZM18.3493 3.21219C18.3493 2.43452 18.5786 1.8064 19.0372 1.32784C19.5158 0.849269 20.1439 0.609985 20.9216 0.609985C21.6992 0.609985 22.3174 0.849269 22.776 1.32784C23.2546 1.8064 23.4939 2.43452 23.4939 3.21219C23.4939 3.96992 23.2546 4.58807 22.776 5.06664C22.3174 5.52526 21.6992 5.75458 20.9216 5.75458C20.1439 5.75458 19.5158 5.52526 19.0372 5.06664C18.5786 4.58807 18.3493 3.96992 18.3493 3.21219Z" fill="#3348A1"/>
<path d="M29.2937 15.0866V14.5183L35.2757 7.8184H40.1811L33.5409 15.3259L33.4213 13.8902L40.3306 22.4446H35.2458L29.2937 15.0866ZM26.2727 2.07559H30.6097V22.4446H26.2727V2.07559Z" fill="#3348A1"/>
<path d="M47.0752 22.7138C45.6195 22.7138 44.3334 22.4047 43.2167 21.7866C42.12 21.1684 41.2626 20.291 40.6444 19.1544C40.0462 18.0178 39.7471 16.6819 39.7471 15.1464C39.7471 13.631 40.0462 12.295 40.6444 11.1385C41.2626 9.98192 42.12 9.0846 43.2167 8.44651C44.3334 7.78848 45.6195 7.45947 47.0752 7.45947C48.5707 7.45947 49.8668 7.79846 50.9635 8.47643C52.0602 9.15439 52.9077 10.0716 53.5059 11.2282C54.1041 12.3648 54.4032 13.6509 54.4032 15.0866C54.4032 15.3459 54.3933 15.5951 54.3733 15.8344C54.3534 16.0737 54.3334 16.2631 54.3135 16.4027H43.1569V13.292H50.9635L50.4551 14.5781C50.4551 13.4814 50.1759 12.5841 49.6176 11.8862C49.0792 11.1883 48.2417 10.8393 47.1051 10.8393C46.0881 10.8393 45.2706 11.1484 44.6524 11.7666C44.0542 12.3847 43.7551 13.2023 43.7551 14.2192V15.8643C43.7551 16.961 44.0642 17.8184 44.6823 18.4366C45.3204 19.0348 46.1978 19.3339 47.3145 19.3339C48.2517 19.3339 48.9894 19.1445 49.5278 18.7656C50.0862 18.3867 50.5548 17.9181 50.9336 17.3598L53.8947 19.0049C53.2567 20.1814 52.3593 21.0986 51.2028 21.7567C50.0463 22.3947 48.6704 22.7138 47.0752 22.7138Z" fill="#3348A1"/>
<path d="M71.1813 22.8035C69.6659 22.8035 68.3299 22.4845 67.1733 21.8464C66.0168 21.1884 65.1195 20.2811 64.4814 19.1245C63.8433 17.968 63.5243 16.642 63.5243 15.1464C63.5243 13.631 63.8433 12.295 64.4814 11.1385C65.1195 9.98192 66.0168 9.0846 67.1733 8.44651C68.3299 7.78848 69.6659 7.45947 71.1813 7.45947C72.7167 7.45947 74.0627 7.78848 75.2192 8.44651C76.3758 9.0846 77.2731 9.98192 77.9112 11.1385C78.5692 12.295 78.8982 13.631 78.8982 15.1464C78.8982 16.642 78.5692 17.968 77.9112 19.1245C77.2731 20.2811 76.3758 21.1884 75.2192 21.8464C74.0627 22.4845 72.7167 22.8035 71.1813 22.8035ZM71.1813 18.5562C72.1584 18.5562 72.9461 18.2472 73.5443 17.629C74.1624 16.9909 74.4715 16.1634 74.4715 15.1464C74.4715 14.1096 74.1624 13.2721 73.5443 12.634C72.9461 11.9959 72.1584 11.6768 71.1813 11.6768C70.2441 11.6768 69.4665 11.9959 68.8483 12.634C68.2501 13.2521 67.951 14.0796 67.951 15.1165C67.951 16.1534 68.2501 16.9909 68.8483 17.629C69.4665 18.2472 70.2441 18.5562 71.1813 18.5562Z" fill="#3348A1"/>
<path d="M81.7652 22.4446V6.86126C81.7652 5.76455 81.9646 4.82735 82.3634 4.04968C82.7821 3.27201 83.3604 2.68377 84.0982 2.28497C84.8559 1.86622 85.7333 1.65685 86.7303 1.65685C87.2488 1.65685 87.7074 1.68676 88.1062 1.74658C88.505 1.8064 88.824 1.86622 89.0633 1.92604V5.90413C88.8839 5.86425 88.6845 5.82437 88.4651 5.78449C88.2657 5.74461 88.0165 5.72467 87.7174 5.72467C87.2188 5.72467 86.83 5.87422 86.5508 6.17332C86.2916 6.45249 86.162 6.91111 86.162 7.5492V22.4446H81.7652ZM88.7343 12.275H79.7911V8.26705H88.7343V12.275Z" fill="#3348A1"/>
<path d="M8.14116 49.6033C6.526 49.6033 5.24982 49.2044 4.31263 48.4068C3.39538 47.6092 2.93675 46.3031 2.93675 44.4886V34.9172L2.87693 34.7378L3.77424 31.2083H7.30367V43.5314C7.30367 44.2094 7.46319 44.6979 7.78224 44.997C8.10128 45.2762 8.52003 45.4158 9.03848 45.4158C9.33758 45.4158 9.61674 45.3959 9.87597 45.356C10.1551 45.2961 10.3844 45.2363 10.5639 45.1765V49.2742C10.2249 49.3739 9.85603 49.4537 9.45722 49.5135C9.07836 49.5733 8.63967 49.6033 8.14116 49.6033ZM0.663559 38.7458V34.7378H10.5639V38.7458H0.663559Z" fill="#3348A1"/>
<path d="M13.479 49.364V28.995H17.8459V49.364H13.479ZM22.7512 49.364V40.6899C22.7512 39.8525 22.6017 39.3041 22.3026 39.0449C22.0035 38.7657 21.6047 38.6261 21.1062 38.6261C20.6874 38.6261 20.2487 38.7159 19.7901 38.8953C19.3514 39.0548 18.9227 39.2842 18.504 39.5833C18.0852 39.8824 17.7163 40.2213 17.3973 40.6002L16.1111 37.5194C16.6296 36.9412 17.2178 36.4128 17.8758 35.9342C18.5339 35.4556 19.2517 35.0768 20.0294 34.7976C20.8071 34.5184 21.6246 34.3788 22.482 34.3788C23.4591 34.3788 24.2567 34.5483 24.8749 34.8873C25.493 35.2064 25.9616 35.655 26.2807 36.2333C26.6196 36.8116 26.839 37.4696 26.9387 38.2074C27.0583 38.9252 27.1182 39.673 27.1182 40.4507V49.364H22.7512Z" fill="#3348A1"/>
<path d="M36.3553 49.6332C34.8997 49.6332 33.6135 49.3241 32.4969 48.7059C31.4002 48.0878 30.5427 47.2104 29.9246 46.0738C29.3264 44.9372 29.0273 43.6012 29.0273 42.0658C29.0273 40.5504 29.3264 39.2144 29.9246 38.0578C30.5427 36.9013 31.4002 36.004 32.4969 35.3659C33.6135 34.7079 34.8997 34.3788 36.3553 34.3788C37.8508 34.3788 39.147 34.7178 40.2437 35.3958C41.3404 36.0738 42.1879 36.991 42.7861 38.1476C43.3843 39.2842 43.6834 40.5703 43.6834 42.006C43.6834 42.2652 43.6734 42.5145 43.6535 42.7538C43.6335 42.993 43.6136 43.1825 43.5937 43.3221H32.4371V40.2114H40.2437L39.7352 41.4975C39.7352 40.4008 39.456 39.5035 38.8977 38.8056C38.3593 38.1077 37.5218 37.7587 36.3852 37.7587C35.3683 37.7587 34.5507 38.0678 33.9326 38.6859C33.3344 39.3041 33.0353 40.1216 33.0353 41.1386V42.7837C33.0353 43.8804 33.3443 44.7378 33.9625 45.356C34.6006 45.9542 35.478 46.2533 36.5946 46.2533C37.5318 46.2533 38.2696 46.0638 38.808 45.685C39.3663 45.3061 39.8349 44.8375 40.2138 44.2792L43.1749 45.9243C42.5368 47.1007 41.6395 48.018 40.483 48.676C39.3264 49.3141 37.9506 49.6332 36.3553 49.6332Z" fill="#3348A1"/>
<path d="M61.7143 28.4155C65.0964 28.4155 67.6279 29.2663 69.3086 30.9677C70.9893 32.6692 71.8296 34.8271 71.8296 37.4416C71.8296 40.056 71.2383 42.5874 70.0556 45.0359C68.8728 47.4636 67.2959 49.6008 65.3247 51.4475C61.2785 55.2654 56.5165 57.8383 51.0386 59.1663L50.1983 57.1121C55.2197 55.0371 58.9338 52.5057 61.3408 49.5178C62.4405 48.1691 63.3638 46.6751 64.1108 45.0359C61.9736 47.5258 59.4007 48.7708 56.392 48.7708C54.1303 48.7708 52.211 48.0549 50.634 46.6232C49.0571 45.1707 48.2686 43.1892 48.2686 40.6785C48.2686 37.7528 49.4721 35.0139 51.879 32.4617C53.0202 31.279 54.4519 30.3141 56.1741 29.5671C57.8963 28.7994 59.7431 28.4155 61.7143 28.4155ZM65.8227 37.7839C65.8227 35.6675 65.4595 33.9764 64.7333 32.7107C64.0278 31.445 62.9489 30.8121 61.4964 30.8121C60.0647 30.8121 58.7471 31.362 57.5436 32.4617C56.3401 33.5614 55.4168 34.9101 54.7736 36.5078C54.1511 38.0848 53.8398 39.6203 53.8398 41.1142C53.8398 42.6082 54.1926 43.822 54.898 44.7558C55.6035 45.6687 56.7551 46.1252 58.3528 46.1252C59.9505 46.1252 61.5898 45.2641 63.2705 43.5419C64.9719 41.799 65.8227 39.8796 65.8227 37.7839Z" fill="#E4543A"/>
<path d="M85.462 56.085C82.5779 56.085 80.2021 55.0164 78.3346 52.8792C76.4671 50.7212 75.606 48.0653 75.7513 44.9114C75.9173 41.7367 76.7991 38.894 78.3968 36.3833C80.0153 33.8519 81.9761 31.8911 84.2793 30.5009C86.6033 29.1106 88.9376 28.4155 91.2823 28.4155C93.6477 28.4155 95.6708 28.9758 97.3515 30.0962C100.588 32.2127 102.093 35.543 101.865 40.0871C101.699 43.324 100.723 46.2808 98.9388 48.9575C95.8057 53.7092 91.3134 56.085 85.462 56.085ZM84.4038 52.8792C85.0263 53.3979 85.7733 53.6573 86.6448 53.6573C88.3047 53.6573 89.7987 52.9622 91.1267 51.572C93.7203 48.8538 95.1313 45.067 95.3596 40.2116C95.4841 37.5557 95.1624 35.3355 94.3947 33.551C93.627 31.7458 92.3509 30.8432 90.5664 30.8432C88.8027 30.8432 87.039 32.1401 85.2753 34.7338C83.5116 37.3067 82.5364 40.6474 82.3496 44.7558C82.1629 48.8642 82.8476 51.572 84.4038 52.8792Z" fill="#E4543A"/>
<path d="M105.631 55.1513C104.282 54.674 103.317 54.1138 102.736 53.4705C102.155 52.8066 101.865 52.0803 101.865 51.2918C101.865 50.5034 102.082 49.8498 102.518 49.331C102.954 48.8123 103.524 48.5529 104.23 48.5529C104.956 48.5529 105.589 48.7708 106.129 49.2065C106.689 49.6215 106.969 50.2232 106.969 51.0117C106.969 51.7795 106.492 52.4227 105.537 52.9414C106.326 53.6262 107.529 53.9685 109.148 53.9685C112.654 53.9685 114.408 52.9726 114.408 50.9806C114.408 49.7356 113.297 48.7397 111.077 47.9927C110.164 47.6814 109.241 47.3494 108.307 46.9967C107.394 46.644 106.595 46.1252 105.911 45.4405C105.226 44.7558 104.852 43.9258 104.79 42.9506C104.79 41.5396 105.257 40.3465 106.191 39.3713C107.954 37.5038 110.59 36.5701 114.096 36.5701C115.819 36.5701 117.344 36.9021 118.672 37.5661C120 38.2093 120.664 39.0496 120.664 40.0871C120.664 41.1246 120.394 41.8716 119.854 42.3281C119.336 42.7846 118.723 43.0128 118.018 43.0128C117.313 43.0128 116.711 42.8261 116.213 42.4526C115.736 42.0583 115.497 41.5188 115.497 40.8341C115.497 40.1494 115.902 39.558 116.711 39.06C116.213 38.7073 115.352 38.5309 114.127 38.5309C112.903 38.5309 111.804 38.7177 110.828 39.0911C109.853 39.4439 109.365 39.9315 109.365 40.554C109.365 41.1765 109.718 41.6952 110.424 42.1102C111.15 42.5252 112.021 42.9091 113.038 43.2618C114.055 43.6145 115.072 44.0192 116.088 44.4756C117.105 44.9321 117.966 45.5857 118.672 46.4365C119.398 47.2872 119.761 48.335 119.761 49.58C119.761 50.825 119.253 51.9558 118.236 52.9726C116.306 54.9023 113.671 55.8671 110.33 55.8671C108.567 55.8671 107 55.6285 105.631 55.1513Z" fill="#E4543A"/>
</svg>
