<svg width="28" height="20" viewBox="0 0 28 20" fill="none" xmlns="http://www.w3.org/2000/svg">
<path d="M4.00386 6.36378H3.99886C3.99886 3.72378 5.70886 1.47378 8.09886 0.673784C8.74886 0.453784 9.27886 1.23378 8.83886 1.76378L7.50086 3.36378H8.50886C8.78886 3.36378 9.00886 3.58378 9.00886 3.86378C9.00886 4.14378 8.77886 4.36378 8.50886 4.36378H11.9989C13.0989 4.36378 13.9989 5.26378 13.9989 6.36378H20.9989V5.33378C20.9989 4.80378 21.4289 4.36378 21.9689 4.36378H26.0189C26.5589 4.36378 26.9989 4.80378 27.0089 5.33378V5.44378C27.0089 5.76578 26.9409 6.07778 26.8109 6.36378H24.9989V6.37378C24.4489 6.37378 23.9989 6.82378 23.9989 7.37378C23.9989 7.83378 24.3089 8.19378 24.7289 8.31378H24.7619C23.8779 8.90178 22.9119 9.36678 21.9089 9.74378C21.4214 9.92715 20.9598 10.1732 20.5359 10.4758L21.1179 11.0448C21.9086 10.5521 22.8329 10.3169 23.763 10.3719C24.6931 10.4268 25.5832 10.7691 26.3105 11.3515C27.0377 11.934 27.5663 12.7277 27.8232 13.6234C28.0801 14.519 28.0526 15.4722 27.7446 16.3516C27.4366 17.2309 26.8633 17.993 26.1037 18.5326C25.3441 19.0722 24.4358 19.3627 23.5041 19.3641C22.5723 19.3654 21.6632 19.0775 20.902 18.5401C20.1409 18.0027 19.5654 17.2422 19.2549 16.3638H17.7589C17.4169 16.9578 16.7479 17.3638 15.9989 17.3638H11.9989C10.9159 17.3638 9.99886 16.4038 9.99886 15.3638C9.99886 14.6468 9.87186 13.9888 9.65586 13.3638C9.53637 13.0212 9.39371 12.687 9.22886 12.3638H9.21886C9.13274 12.2026 9.04034 12.0448 8.94186 11.8908L8.31686 12.4808C8.90291 13.4192 9.1227 14.5407 8.93424 15.6309C8.74579 16.7211 8.1623 17.7037 7.29523 18.391C6.42817 19.0782 5.33832 19.4219 4.23386 19.3565C3.1294 19.2911 2.08775 18.821 1.30791 18.0362C0.528065 17.2514 0.0646811 16.2068 0.00627816 15.1019C-0.0521248 13.9971 0.298547 12.9094 0.991304 12.0468C1.68406 11.1841 2.67035 10.6069 3.76175 10.4254C4.85316 10.2438 5.97318 10.4708 6.90786 11.0628L7.61386 10.3708C7.22058 10.0386 6.78923 9.75423 6.32886 9.52378L5.78886 9.25378L5.78086 9.24978C5.91917 8.97458 5.99368 8.67174 5.99886 8.36378C5.99729 7.8347 5.78676 7.32766 5.4131 6.95307C5.03945 6.57849 4.53294 6.36668 4.00386 6.36378ZM18.8189 12.3638H18.7959C18.6059 12.6798 18.4495 13.0131 18.3269 13.3638C18.2115 13.6944 18.1265 14.0378 18.0719 14.3938H19.0229C19.0949 13.7008 19.3239 13.0538 19.6739 12.4918L19.0859 11.9448C18.9911 12.0807 18.902 12.2205 18.8189 12.3638ZM23.3459 13.3718C22.9568 13.4121 22.5988 13.6029 22.3484 13.9034C22.0979 14.2039 21.9747 14.5903 22.0051 14.9803C22.0355 15.3703 22.2171 15.7331 22.5111 15.9911C22.8051 16.2492 23.1883 16.3822 23.5789 16.3617C23.9696 16.3413 24.3368 16.1691 24.6023 15.8818C24.8678 15.5945 25.0105 15.2148 25.0001 14.8237C24.9896 14.4327 24.8268 14.0612 24.5464 13.7885C24.2659 13.5157 23.8901 13.3633 23.4989 13.3638H23.4889C23.4409 13.3638 23.3932 13.3664 23.3459 13.3718ZM4.55686 13.3638H4.49886C4.10355 13.3646 3.72455 13.5215 3.44426 13.8002C3.16397 14.079 3.00505 14.4571 3.00205 14.8524C2.99906 15.2477 3.15224 15.6282 3.42827 15.9112C3.70431 16.1942 4.0809 16.3567 4.47615 16.3636C4.87141 16.3704 5.25337 16.2209 5.539 15.9476C5.82463 15.6743 5.99083 15.2993 6.00147 14.9041C6.0121 14.509 5.86632 14.1256 5.5958 13.8373C5.32528 13.5491 4.95191 13.3782 4.55686 13.3638ZM7.00886 7.36378C7.00886 7.91378 7.45886 8.36378 8.00886 8.36378H9.00886V6.36378H8.00886C7.45886 6.36378 7.00886 6.81378 7.00886 7.36378ZM10.7059 13.3638C10.8899 13.9838 10.9989 14.6468 10.9989 15.3638C10.9989 15.8658 11.4819 16.3638 11.9989 16.3638H15.9989C16.5889 16.3638 16.9989 15.9038 16.9989 15.4738V15.3638C16.9989 14.6788 17.0899 14.0058 17.2769 13.3638H10.7059Z" fill="white"/>
</svg>
